<svg xmlns="http://www.w3.org/2000/svg" xmlns:xlink="http://www.w3.org/1999/xlink" width="6912" zoomAndPan="magnify" viewBox="0 0 5184 2592.000001" height="3456" preserveAspectRatio="xMidYMid meet" version="1.0"><defs><g/><clipPath id="c5ff3db905"><path d="M 76.09375 953.730469 L 835.550781 953.730469 L 835.550781 1713 L 76.09375 1713 Z M 76.09375 953.730469 " clip-rule="nonzero"/></clipPath><clipPath id="1160a2610f"><path d="M 144.351562 1021.988281 L 766.613281 1021.988281 L 766.613281 1644.25 L 144.351562 1644.25 Z M 144.351562 1021.988281 " clip-rule="nonzero"/></clipPath><clipPath id="1277de2c5f"><path d="M 935.527344 1027.601562 L 1592.273438 1027.601562 L 1592.273438 1684.347656 L 935.527344 1684.347656 Z M 935.527344 1027.601562 " clip-rule="nonzero"/></clipPath><clipPath id="07327674b4"><path d="M 884.238281 973.492188 L 1643.695312 973.492188 L 1643.695312 1732.949219 L 884.238281 1732.949219 Z M 884.238281 973.492188 " clip-rule="nonzero"/></clipPath><clipPath id="9b6d0ea48f"><path d="M 952.617188 1041.75 L 1574.878906 1041.75 L 1574.878906 1664.011719 L 952.617188 1664.011719 Z M 952.617188 1041.75 " clip-rule="nonzero"/></clipPath><clipPath id="da9934a01b"><path d="M 3223.683594 1031.863281 L 3983 1031.863281 L 3983 1791 L 3223.683594 1791 Z M 3223.683594 1031.863281 " clip-rule="nonzero"/></clipPath><clipPath id="4ad0737afe"><path d="M 3291.941406 1100.125 L 3914.203125 1100.125 L 3914.203125 1722.382812 L 3291.941406 1722.382812 Z M 3291.941406 1100.125 " clip-rule="nonzero"/></clipPath><clipPath id="124131df32"><path d="M 2534 717 L 5056 717 L 5056 1069 L 2534 1069 Z M 2534 717 " clip-rule="nonzero"/></clipPath><clipPath id="e12101db43"><path d="M 2543.714844 684.414062 L 5061.222656 746.660156 L 5051.714844 1131.144531 L 2534.207031 1068.898438 Z M 2543.714844 684.414062 " clip-rule="nonzero"/></clipPath><clipPath id="e5f589e5dd"><path d="M 2543.714844 684.414062 L 5061.222656 746.660156 L 5051.714844 1131.144531 L 2534.207031 1068.898438 Z M 2543.714844 684.414062 " clip-rule="nonzero"/></clipPath></defs><g clip-path="url(#c5ff3db905)"><path fill="#121790" d="M 455.652344 953.730469 C 245.945312 953.730469 76.09375 1123.582031 76.09375 1333.289062 C 76.09375 1542.996094 245.945312 1712.847656 455.652344 1712.847656 C 665.359375 1712.847656 835.210938 1542.996094 835.210938 1333.289062 C 835.210938 1123.582031 665.359375 953.730469 455.652344 953.730469 Z M 455.652344 1636.933594 C 287.886719 1636.933594 152.003906 1501.054688 152.003906 1333.289062 C 152.003906 1165.523438 287.886719 1029.640625 455.652344 1029.640625 C 623.417969 1029.640625 759.300781 1165.523438 759.300781 1333.289062 C 759.300781 1501.054688 623.417969 1636.933594 455.652344 1636.933594 Z M 455.652344 1636.933594 " fill-opacity="1" fill-rule="nonzero"/></g><g clip-path="url(#1160a2610f)"><path fill="#121790" d="M 455.652344 1021.988281 C 283.660156 1021.988281 144.351562 1161.296875 144.351562 1333.289062 C 144.351562 1505.28125 283.660156 1644.589844 455.652344 1644.589844 C 627.644531 1644.589844 766.953125 1505.28125 766.953125 1333.289062 C 766.953125 1161.296875 627.644531 1021.988281 455.652344 1021.988281 Z M 455.652344 1582.328125 C 318.058594 1582.328125 206.613281 1470.882812 206.613281 1333.289062 C 206.613281 1195.695312 318.058594 1084.25 455.652344 1084.25 C 593.246094 1084.25 704.691406 1195.695312 704.691406 1333.289062 C 704.691406 1470.882812 593.246094 1582.328125 455.652344 1582.328125 Z M 455.652344 1582.328125 " fill-opacity="1" fill-rule="nonzero"/></g><g fill="#121790" fill-opacity="1"><g transform="translate(1573.450181, 1741.820734)"><g><path d="M 418.171875 0 C 355.609375 0 301.550781 -13.441406 256 -40.328125 C 210.457031 -67.222656 175.335938 -103.992188 150.640625 -150.640625 C 125.941406 -197.285156 113.59375 -249.691406 113.59375 -307.859375 L 113.59375 -1152.4375 L 271.640625 -1152.4375 L 271.640625 -288.109375 C 271.640625 -245.304688 285.082031 -209.910156 311.96875 -181.921875 C 338.863281 -153.929688 374.265625 -139.9375 418.171875 -139.9375 L 727.6875 -139.9375 L 727.6875 0 Z M 418.171875 0 "/></g></g></g><g fill="#121790" fill-opacity="1"><g transform="translate(809.183557, 2056.815026)"><g><path d="M 80.84375 0 L 80.84375 -642.328125 L 217.03125 -642.328125 L 217.03125 0 Z M 80.84375 0 "/></g></g></g><g clip-path="url(#1277de2c5f)"><path fill="#ffffff" d="M 1263.796875 1027.601562 C 1082.429688 1027.601562 935.527344 1174.5 935.527344 1355.867188 C 935.527344 1537.238281 1082.429688 1684.136719 1263.796875 1684.136719 C 1445.164062 1684.136719 1592.0625 1537.238281 1592.0625 1355.867188 C 1592.0625 1174.5 1445.164062 1027.601562 1263.796875 1027.601562 Z M 1263.796875 1618.484375 C 1118.703125 1618.484375 1001.179688 1500.964844 1001.179688 1355.867188 C 1001.179688 1210.773438 1118.703125 1093.253906 1263.796875 1093.253906 C 1408.890625 1093.253906 1526.410156 1210.773438 1526.410156 1355.867188 C 1526.410156 1500.964844 1408.890625 1618.484375 1263.796875 1618.484375 Z M 1263.796875 1618.484375 " fill-opacity="1" fill-rule="nonzero"/></g><g clip-path="url(#07327674b4)"><path fill="#121790" d="M 1263.796875 973.492188 C 1054.089844 973.492188 884.238281 1143.34375 884.238281 1353.050781 C 884.238281 1562.757812 1054.089844 1732.609375 1263.796875 1732.609375 C 1473.5 1732.609375 1643.355469 1562.757812 1643.355469 1353.050781 C 1643.355469 1143.34375 1473.5 973.492188 1263.796875 973.492188 Z M 1263.796875 1656.699219 C 1096.03125 1656.699219 960.148438 1520.816406 960.148438 1353.050781 C 960.148438 1185.285156 1096.03125 1049.402344 1263.796875 1049.402344 C 1431.558594 1049.402344 1567.441406 1185.285156 1567.441406 1353.050781 C 1567.441406 1520.816406 1431.558594 1656.699219 1263.796875 1656.699219 Z M 1263.796875 1656.699219 " fill-opacity="1" fill-rule="nonzero"/></g><g fill="#121790" fill-opacity="1"><g transform="translate(707.774637, 1598.408637)"><g><path d="M 25.921875 -180.15625 L 25.921875 -286.375 L 254.078125 -286.375 L 254.078125 -180.15625 Z M 25.921875 -180.15625 "/></g></g></g><g fill="#7c9ec3" fill-opacity="1"><g transform="translate(2516.650323, 1760.146923)"><g><path d="M 430.839844 10.058594 C 361.691406 10.058594 298.152344 -7.050781 240.222656 -41.265625 C 182.292969 -75.5 136.492188 -121.65625 102.820312 -179.738281 C 69.148438 -237.820312 52.3125 -301.085938 52.3125 -369.535156 C 52.3125 -437.664062 69.191406 -500.636719 102.945312 -558.453125 C 136.703125 -616.269531 182.527344 -662.167969 240.414062 -696.148438 C 298.300781 -730.128906 361.796875 -747.121094 430.902344 -747.121094 C 492.828125 -747.121094 550.949219 -732.699219 605.273438 -703.863281 C 659.597656 -675.023438 704.421875 -636.011719 739.742188 -586.832031 L 631.09375 -514.398438 C 608.292969 -545.25 579.273438 -569.617188 544.035156 -587.5 C 508.796875 -605.386719 470.898438 -614.328125 430.335938 -614.328125 C 385.777344 -614.328125 344.699219 -603.261719 307.101562 -581.128906 C 269.515625 -559 239.671875 -529.265625 217.566406 -491.933594 C 195.476562 -454.597656 184.433594 -413.722656 184.433594 -369.304688 C 184.433594 -324.902344 195.476562 -283.808594 217.566406 -246.027344 C 239.671875 -208.25 269.515625 -178.25 307.101562 -156.035156 C 344.699219 -133.832031 385.96875 -122.730469 430.902344 -122.730469 C 472.484375 -122.730469 511.214844 -132.234375 547.09375 -151.234375 C 582.976562 -170.238281 612.09375 -196.28125 634.449219 -229.367188 L 743.097656 -156.933594 C 708.792969 -105.335938 664.109375 -64.601562 609.046875 -34.726562 C 553.996094 -4.871094 494.59375 10.058594 430.839844 10.058594 Z M 430.839844 10.058594 "/></g></g></g><g clip-path="url(#9b6d0ea48f)"><path fill="#121790" d="M 1263.917969 1041.75 C 1091.925781 1041.75 952.617188 1181.058594 952.617188 1353.050781 C 952.617188 1525.042969 1091.925781 1664.351562 1263.917969 1664.351562 C 1435.910156 1664.351562 1575.21875 1525.042969 1575.21875 1353.050781 C 1575.21875 1181.058594 1435.910156 1041.75 1263.917969 1041.75 Z M 1263.917969 1602.089844 C 1126.324219 1602.089844 1014.878906 1490.644531 1014.878906 1353.050781 C 1014.878906 1215.457031 1126.324219 1104.011719 1263.917969 1104.011719 C 1401.511719 1104.011719 1512.957031 1215.457031 1512.957031 1353.050781 C 1512.957031 1490.644531 1401.511719 1602.089844 1263.917969 1602.089844 Z M 1263.917969 1602.089844 " fill-opacity="1" fill-rule="nonzero"/></g><g clip-path="url(#da9934a01b)"><path fill="#7c9ec3" d="M 3603.242188 1031.863281 C 3393.535156 1031.863281 3223.683594 1201.714844 3223.683594 1411.421875 C 3223.683594 1621.128906 3393.535156 1790.980469 3603.242188 1790.980469 C 3812.949219 1790.980469 3982.800781 1621.128906 3982.800781 1411.421875 C 3982.800781 1201.714844 3812.949219 1031.863281 3603.242188 1031.863281 Z M 3603.242188 1715.070312 C 3435.476562 1715.070312 3299.59375 1579.1875 3299.59375 1411.421875 C 3299.59375 1243.65625 3435.476562 1107.777344 3603.242188 1107.777344 C 3771.007812 1107.777344 3906.886719 1243.65625 3906.886719 1411.421875 C 3906.886719 1579.1875 3771.007812 1715.070312 3603.242188 1715.070312 Z M 3603.242188 1715.070312 " fill-opacity="1" fill-rule="nonzero"/></g><g clip-path="url(#4ad0737afe)"><path fill="#7c9ec3" d="M 3603.242188 1100.125 C 3431.25 1100.125 3291.941406 1239.429688 3291.941406 1411.421875 C 3291.941406 1583.417969 3431.25 1722.722656 3603.242188 1722.722656 C 3775.234375 1722.722656 3914.542969 1583.417969 3914.542969 1411.421875 C 3914.542969 1239.429688 3775.234375 1100.125 3603.242188 1100.125 Z M 3603.242188 1660.464844 C 3465.648438 1660.464844 3354.203125 1549.019531 3354.203125 1411.421875 C 3354.203125 1273.828125 3465.648438 1162.382812 3603.242188 1162.382812 C 3740.835938 1162.382812 3852.28125 1273.828125 3852.28125 1411.421875 C 3852.28125 1549.019531 3740.835938 1660.464844 3603.242188 1660.464844 Z M 3603.242188 1660.464844 " fill-opacity="1" fill-rule="nonzero"/></g><g clip-path="url(#124131df32)"><g clip-path="url(#e12101db43)"><g clip-path="url(#e5f589e5dd)"><path fill="#7c9ec3" d="M 3386.550781 752.3125 C 3384.183594 748.566406 3383.445312 747.371094 3382.214844 745.394531 C 3414.867188 741.902344 3446.753906 738.285156 3478.730469 735.234375 C 3487.710938 734.382812 3496.855469 735.378906 3505.921875 735.242188 C 3510.070312 735.191406 3514.238281 734.269531 3518.394531 734.015625 C 3524.1875 733.699219 3529.96875 733.839844 3535.765625 733.371094 C 3543.257812 732.785156 3550.75 732.050781 3558.199219 731.054688 C 3574.332031 728.894531 3590.425781 726.273438 3606.601562 724.316406 C 3615.691406 723.210938 3624.914062 723.027344 3634.09375 722.488281 C 3653.578125 721.332031 3673.089844 719.148438 3692.539062 719.476562 C 3705.183594 719.6875 3717.429688 715.125 3730.785156 719.605469 C 3739.167969 722.421875 3749.894531 717.207031 3759.570312 717.242188 C 3777.898438 717.339844 3796.195312 718.867188 3814.511719 719.320312 C 3824.59375 719.566406 3834.757812 718.640625 3844.847656 718.53125 C 3860.214844 718.296875 3875.578125 718.113281 3890.9375 718.238281 C 3902.609375 718.320312 3914.324219 718.714844 3925.984375 719.308594 C 3941.074219 720.042969 3956.140625 721.539062 3971.238281 721.914062 C 3983.980469 722.226562 3996.699219 721.363281 4009.453125 721.167969 C 4014.371094 721.085938 4019.335938 721.207031 4024.242188 721.535156 C 4036.253906 722.394531 4048.320312 723.203125 4060.316406 724.578125 C 4065.273438 725.109375 4069.980469 727.324219 4074.871094 728.214844 C 4078.796875 728.925781 4082.898438 728.71875 4086.882812 729.125 C 4104.964844 731.003906 4123.03125 733.296875 4141.121094 734.765625 C 4153.234375 735.730469 4165.433594 735.265625 4177.5 736.023438 C 4181.128906 736.269531 4184.535156 739.324219 4188.210938 739.773438 C 4192.039062 740.226562 4196.1875 738.125 4199.910156 738.730469 C 4211.996094 740.71875 4223.90625 743.574219 4235.9375 745.816406 C 4242.714844 747.058594 4249.609375 747.84375 4256.503906 748.527344 C 4267.027344 749.605469 4277.554688 750.429688 4288.078125 751.355469 C 4301.976562 752.570312 4316.378906 751.953125 4329.65625 755.507812 C 4345.730469 759.847656 4362.035156 760.96875 4378.042969 763.871094 C 4391.550781 766.355469 4404.882812 769.707031 4418.71875 771.433594 C 4442.148438 774.316406 4465.496094 778.476562 4488.621094 783.503906 C 4519.078125 790.144531 4549.246094 798.007812 4579.472656 805.71875 C 4589.035156 808.15625 4598.3125 811.921875 4607.769531 814.765625 C 4611.070312 815.769531 4614.769531 815.296875 4618.128906 816.199219 C 4633.691406 820.375 4649.09375 825.003906 4664.714844 829.027344 C 4675.90625 831.914062 4687.382812 833.785156 4698.625 836.726562 C 4717.703125 841.753906 4736.832031 846.785156 4755.628906 852.726562 C 4768.027344 856.617188 4779.582031 863.511719 4792.109375 866.378906 C 4801.070312 868.445312 4809.96875 868.871094 4816.226562 876.652344 C 4827.320312 869.144531 4834.4375 885.757812 4845.140625 881.464844 C 4846.125 881.078125 4848.355469 881.902344 4848.949219 882.839844 C 4857.070312 895.996094 4872.796875 891.671875 4884.003906 898.144531 C 4898.1875 906.332031 4913.875 911.839844 4928.703125 918.964844 C 4945.957031 927.277344 4963.84375 934.835938 4979.714844 945.316406 C 4985.8125 949.308594 4991.996094 951.867188 4998.21875 954.992188 C 5005.957031 958.816406 5013.484375 962.996094 5021.113281 967.027344 C 5021.722656 967.347656 5036.695312 980.980469 5037.546875 981.667969 C 5038.101562 982.089844 5039.238281 981.710938 5039.839844 982.132812 C 5044.988281 985.179688 5050.082031 988.378906 5055.226562 991.476562 C 5054.535156 992.53125 5053.84375 993.640625 5053.203125 994.703125 C 5050.832031 993.210938 5048.460938 991.71875 5045.335938 989.746094 L 5045.125 998.238281 C 5036.566406 992.34375 5029.75 986.492188 5021.953125 982.816406 C 5017.902344 980.925781 5012.070312 982.828125 5006.179688 984.9375 C 5020.480469 988.617188 5027.746094 999.140625 5035.136719 1010.898438 C 5026.398438 1026.757812 5050.148438 1027.039062 5049.71875 1042.441406 C 5042.519531 1043.644531 5033.878906 1045.121094 5024.519531 1046.734375 C 5024.648438 1047.761719 5024.945312 1050.226562 5025.488281 1055.308594 C 5019.140625 1050.953125 5014.355469 1047.761719 5008.96875 1044.097656 C 5008.285156 1046.945312 5007.714844 1049.238281 5007.316406 1050.917969 C 4951.4375 1030.691406 4895.460938 1010.414062 4839.078125 989.972656 C 4838.890625 991.453125 4838.640625 993.238281 4838.253906 996.453125 C 4828.582031 989.917969 4819.671875 983.859375 4808.390625 976.15625 C 4810.394531 979.992188 4811.175781 981.5 4811.960938 982.953125 C 4811.476562 983.859375 4810.996094 984.71875 4810.511719 985.628906 C 4802.144531 980.300781 4793.933594 974.773438 4785.40625 969.699219 C 4782.679688 968.09375 4779.035156 966.417969 4776.207031 966.910156 C 4769.675781 968.03125 4753.75 963.898438 4746.929688 962.242188 C 4740.464844 960.703125 4735.742188 955.054688 4727.25 956.84375 C 4720.351562 958.308594 4707.464844 955.535156 4705.375 950.976562 C 4700.519531 940.359375 4695.0625 943.601562 4687.804688 945.0625 C 4685.746094 945.472656 4682.976562 941.511719 4680.300781 940.011719 C 4676.058594 937.65625 4671.40625 935.234375 4671.316406 943.066406 C 4645.707031 937.109375 4619.835938 931.453125 4594.191406 924.878906 C 4583.503906 922.15625 4573.332031 917.296875 4562.875 913.605469 C 4561.757812 913.21875 4559.921875 915.070312 4558.699219 914.730469 C 4552.902344 913.207031 4545.945312 912.828125 4541.785156 909.246094 C 4531.761719 900.496094 4521.6875 897.839844 4509.386719 904.601562 C 4507.898438 900.625 4510.183594 890.898438 4501.40625 900.105469 C 4498.777344 902.90625 4489.019531 899.851562 4482.917969 898.164062 C 4473.867188 895.632812 4465.261719 891.53125 4456.265625 888.851562 C 4451.488281 887.453125 4446.261719 887.628906 4441.253906 887.148438 C 4440.628906 885.441406 4440.007812 883.738281 4439.382812 882.03125 C 4438.335938 885.027344 4437.339844 888.074219 4436.292969 891.070312 L 4433.164062 889.199219 C 4432.15625 886.5625 4431.195312 883.980469 4430.28125 881.601562 C 4419.113281 889.980469 4413.886719 875.769531 4404.070312 877.214844 C 4403.589844 884.117188 4397.5 881.917969 4391.492188 880.59375 C 4383.445312 878.804688 4375.222656 877.988281 4367.289062 875.792969 C 4353.199219 871.914062 4338.480469 872.878906 4324.433594 869.511719 C 4321.632812 868.828125 4318.652344 867.21875 4316.757812 865.125 C 4313.167969 861.144531 4313.683594 861.105469 4308.871094 865.132812 C 4307.667969 866.128906 4304.613281 865.488281 4302.734375 864.828125 C 4295.730469 862.300781 4288.941406 859.316406 4281.882812 856.992188 C 4281.121094 856.714844 4279.316406 859.386719 4277.738281 861.035156 C 4260.207031 849.441406 4238.910156 851.320312 4218.433594 848.96875 C 4214.605469 848.515625 4211.027344 846.175781 4207.199219 845.671875 C 4197.757812 844.414062 4188.308594 843.464844 4178.800781 842.820312 C 4168.117188 842.042969 4157.367188 841.980469 4146.738281 841.105469 C 4134.78125 840.089844 4122.890625 838.464844 4110.996094 837.046875 C 4102.671875 836.070312 4094.355469 834.894531 4086.027344 834.175781 C 4083.574219 833.960938 4080.988281 834.972656 4075.332031 836.011719 C 4080.199219 837.921875 4081.921875 838.632812 4085.121094 839.835938 C 4077.078125 839.945312 4069.648438 842.21875 4068.601562 830.722656 C 4059.460938 835.925781 4051.292969 837.003906 4041.753906 831.390625 C 4036.707031 828.449219 4028.445312 831.164062 4021.640625 830.996094 C 4017.339844 830.890625 4013.109375 830.171875 4006.265625 829.488281 C 4006.054688 829.742188 4004.101562 832.097656 4001.988281 834.65625 C 4001.085938 833.96875 4000.070312 833.535156 3999.476562 832.804688 C 3998.183594 831.132812 3996.171875 827.703125 3996.066406 827.753906 C 3988.742188 831.976562 3980.867188 825.378906 3974.757812 827.992188 C 3969.738281 830.121094 3961.820312 823.21875 3959.484375 832.738281 C 3959.480469 832.890625 3956.050781 832.957031 3955.609375 832.179688 C 3948.765625 821 3939.339844 829.523438 3931.113281 828.808594 C 3926.464844 828.386719 3921.824219 827.65625 3917.601562 826.527344 C 3912.933594 826.773438 3908.152344 827.625 3903.609375 827.054688 C 3893.910156 825.890625 3884.277344 823.964844 3874.585938 822.546875 C 3873.5625 822.417969 3872.152344 823.511719 3871.160156 824.304688 C 3862.960938 830.863281 3853.742188 828.894531 3844.609375 827.59375 C 3842.109375 827.222656 3839.617188 826.445312 3837.378906 825.878906 C 3832.351562 826.214844 3828.542969 827.042969 3824.917969 826.542969 C 3821.804688 826.15625 3817.53125 833.425781 3814.714844 825.0625 C 3814.332031 823.976562 3803.671875 826.425781 3796.683594 827.378906 C 3796.683594 827.378906 3796.027344 825.007812 3795.230469 822.019531 C 3790.910156 824.882812 3788.386719 833.679688 3782.304688 824.925781 C 3781.8125 824.246094 3776.542969 826.0625 3774.148438 827.691406 C 3769.722656 830.65625 3770.074219 830.871094 3767.550781 825.328125 C 3767.015625 824.085938 3764.898438 822.753906 3763.617188 822.824219 C 3753.15625 823.4375 3742.683594 824.558594 3732.222656 825.121094 C 3721.816406 825.683594 3711.320312 825.628906 3700.914062 826.136719 C 3681.378906 827.140625 3661.835938 828.449219 3642.304688 829.453125 C 3637.585938 829.691406 3632.835938 829.269531 3627.769531 829.144531 C 3628.5 830.59375 3629.527344 832.667969 3629.863281 833.445312 C 3619.902344 832.53125 3610.003906 831.058594 3600.125 830.96875 C 3596.492188 830.929688 3598.1875 840.957031 3589.671875 837.519531 C 3585.007812 835.613281 3578.496094 838.011719 3572.894531 838.847656 C 3568.9375 839.464844 3563.554688 843.839844 3564.597656 834.699219 C 3562.707031 834.601562 3559.96875 833.613281 3559.125 834.511719 C 3554.445312 839.464844 3550.554688 843.621094 3542.6875 838.664062 C 3540.269531 837.117188 3534.628906 841.535156 3530.320312 841.890625 C 3526.625 842.207031 3522.824219 840.679688 3518.03125 839.792969 C 3515.566406 846.339844 3507.503906 845.117188 3500.589844 845.199219 C 3494.136719 845.296875 3485.984375 851.855469 3481.535156 841.402344 C 3476.710938 850.089844 3456.398438 851.582031 3445.265625 844.039062 C 3442.210938 851.589844 3410.007812 855.660156 3404.285156 851.011719 C 3400.09375 852.75 3397.28125 854.730469 3394.304688 854.964844 C 3377.628906 856.394531 3360.824219 856.800781 3344.238281 858.691406 C 3332.167969 860.085938 3320.402344 863.890625 3308.328125 865.433594 C 3296.054688 866.972656 3283.429688 866.046875 3271.242188 868.101562 C 3259.109375 870.105469 3247.515625 875.09375 3235.417969 877.660156 C 3216.941406 881.558594 3198.230469 884.527344 3179.609375 887.90625 C 3167.574219 890.066406 3155.582031 892.535156 3143.503906 894.386719 C 3139.082031 895.046875 3134.390625 894.261719 3128.867188 894.125 C 3128.867188 894.023438 3128.789062 897.144531 3128.226562 897.234375 C 3121.082031 898.339844 3113.886719 899.335938 3106.660156 899.671875 C 3104.042969 899.8125 3101.324219 898.054688 3097.667969 896.785156 C 3094.882812 907.980469 3084.058594 904.640625 3074.8125 905.746094 C 3064.082031 907.015625 3053.566406 909.726562 3042.832031 911.046875 C 3037.339844 911.679688 3032.414062 912.070312 3027.960938 916.160156 C 3026.597656 917.40625 3022.195312 915.351562 3019.644531 914.878906 C 3010.773438 917.527344 3001.585938 920.523438 2992.257812 922.957031 C 2984.0625 925.058594 2975.375 928.582031 2967.40625 927.667969 C 2956.226562 926.316406 2947.886719 934.40625 2936.484375 933.765625 C 2930.753906 933.46875 2921.207031 930.261719 2915.800781 935.609375 C 2908.191406 943.101562 2896.539062 934.003906 2889.804688 943.363281 C 2888.847656 944.671875 2884.875 943.804688 2882.054688 943.992188 C 2881.589844 946.285156 2881.121094 948.628906 2880.65625 950.921875 C 2869.382812 947.109375 2859.417969 950.394531 2849.675781 955.070312 C 2846.101562 956.773438 2842.898438 959.972656 2839.191406 960.75 C 2829.828125 962.667969 2820.097656 962.683594 2810.875 965.015625 C 2786.710938 971.074219 2762.632812 977.699219 2738.652344 984.53125 C 2726.484375 988.019531 2713.515625 990.617188 2703.011719 997.066406 C 2697.085938 1000.710938 2687.578125 997.964844 2684.800781 1006.804688 C 2683.734375 1006.371094 2682.5625 1006.085938 2681.605469 1005.550781 C 2679.734375 1004.53125 2677.972656 1003.359375 2674.996094 1001.496094 C 2678.742188 1015.71875 2666.40625 1013.519531 2660.871094 1019.9375 C 2660.15625 1015.722656 2659.757812 1013.101562 2658.953125 1008.367188 C 2653.402344 1013.351562 2649.101562 1017.496094 2644.453125 1021.273438 C 2642.097656 1023.210938 2639.390625 1025.140625 2636.503906 1025.835938 C 2630.734375 1027.179688 2624.25 1026.558594 2618.96875 1028.886719 C 2615.035156 1030.582031 2612.605469 1035.640625 2608.546875 1040.25 C 2606.878906 1039.441406 2603.339844 1037.664062 2598.027344 1035.023438 C 2599.207031 1039.097656 2599.820312 1041.214844 2600.339844 1042.96875 C 2589.144531 1040.183594 2583.554688 1044.703125 2581.019531 1056.058594 C 2578.515625 1053.847656 2576.511719 1052.054688 2575.253906 1051 C 2562.71875 1056.835938 2549.925781 1062.816406 2537.183594 1068.75 C 2536.1875 1067.546875 2535.191406 1066.394531 2534.199219 1065.195312 C 2535.855469 1062.367188 2537.460938 1059.539062 2539.167969 1056.765625 C 2542.742188 1051.015625 2548.476562 1046.804688 2545.015625 1037.707031 C 2543.621094 1034.039062 2550.082031 1027.386719 2553.730469 1020.667969 C 2553.535156 1020.304688 2552.066406 1017.65625 2551.230469 1016.152344 C 2554.339844 1012.59375 2556.609375 1009.882812 2558.976562 1007.332031 C 2571.867188 993.3125 2585.746094 980.804688 2603.015625 971.960938 C 2624.019531 961.269531 2643.992188 948.652344 2664.992188 938.113281 C 2686.144531 927.523438 2707.691406 917.660156 2729.714844 909.039062 C 2749.984375 901.144531 2771.40625 896.296875 2791.25 886.855469 C 2801.199219 882.132812 2812.605469 880.46875 2823.234375 877.148438 C 2832.9375 874.164062 2842.589844 870.96875 2852.097656 867.519531 C 2870.492188 860.855469 2888.597656 853.417969 2907.132812 847.21875 C 2927.269531 840.445312 2947.601562 834.035156 2968.214844 828.710938 C 2981.511719 825.25 2995.460938 824.417969 3008.945312 821.574219 C 3015.378906 820.25 3021.265625 816.246094 3027.652344 814.765625 C 3047.789062 809.992188 3068.117188 805.9375 3088.296875 801.46875 C 3102.148438 798.429688 3115.851562 794.980469 3129.699219 792.046875 C 3157.445312 786.175781 3185.285156 780.566406 3213.078125 774.753906 C 3226.152344 772.003906 3239.085938 768.738281 3252.203125 766.347656 C 3267.167969 763.648438 3282.3125 762.023438 3297.332031 759.425781 C 3310.804688 757.097656 3324.097656 753.738281 3337.570312 751.460938 C 3345.949219 750.027344 3354.558594 745.632812 3363.074219 751.320312 C 3363.222656 751.429688 3363.789062 751.339844 3363.949219 751.140625 C 3370.425781 743.875 3377.355469 745.273438 3386.238281 752.507812 Z M 3559.054688 750.382812 C 3564.042969 753.628906 3569.03125 756.875 3576.542969 761.71875 C 3574.507812 757.011719 3573.785156 755.25 3573.589844 754.835938 C 3580.484375 753.421875 3586.816406 752.144531 3596.027344 750.273438 C 3589.613281 746.632812 3585.726562 744.4375 3581.835938 742.292969 C 3578.0625 745.832031 3572.355469 748.765625 3570.804688 747.292969 C 3564.152344 740.882812 3561.9375 745.640625 3559.253906 750.589844 C 3554.675781 749.402344 3550.144531 748.265625 3545.414062 747.023438 C 3541.269531 757.214844 3534.195312 747.308594 3527.964844 748.691406 C 3526.535156 750.601562 3524.730469 753.066406 3521.558594 757.238281 C 3530.246094 757.914062 3537.550781 758.503906 3543.785156 759.015625 C 3545.925781 757.429688 3547.707031 755.785156 3549.730469 754.707031 C 3552.742188 753.042969 3555.949219 751.789062 3559.105469 750.332031 Z M 2780.515625 908.914062 C 2785.617188 911.703125 2790.773438 916.4375 2794.839844 907.273438 C 2795.492188 905.804688 2800.945312 904.707031 2801.242188 905.175781 C 2805.320312 912.191406 2810.515625 907.042969 2814.179688 905.855469 C 2834.003906 899.277344 2853.59375 891.929688 2873.328125 884.839844 C 2872.246094 881.023438 2871.117188 876.898438 2869.941406 872.671875 C 2858.941406 876.546875 2848.195312 880.429688 2837.402344 884.105469 C 2827.382812 887.542969 2817.125 890.363281 2807.296875 894.367188 C 2797.828125 898.230469 2788.84375 903.335938 2779.667969 907.871094 C 2768.285156 902.3125 2755.984375 909.074219 2752.9375 924.617188 C 2758.785156 920 2763.226562 916.476562 2769.335938 911.660156 C 2771.441406 911.351562 2778.363281 921.355469 2780.511719 908.964844 Z M 4428.46875 787.085938 C 4426.097656 787.691406 4423.710938 789.015625 4421.617188 788.707031 C 4402.234375 785.769531 4382.796875 782.832031 4363.480469 779.230469 C 4343.089844 775.449219 4322.886719 770.445312 4302.441406 766.917969 C 4283.371094 763.628906 4264.011719 761.71875 4244.832031 758.886719 C 4237.941406 757.898438 4231.296875 755.378906 4224.402344 754.644531 C 4210.359375 753.070312 4196.195312 752.257812 4182.09375 750.988281 C 4153.996094 748.449219 4125.910156 745.296875 4097.742188 743.476562 C 4084.550781 742.636719 4071.605469 740.21875 4057.695312 743.664062 C 4047.804688 746.132812 4035.96875 740.257812 4024.941406 738.859375 C 4020.753906 738.34375 4016.257812 740.078125 4011.167969 740.925781 C 4011.015625 740.820312 4009.078125 738.414062 4006.984375 738.261719 C 3983.058594 736.746094 3959.078125 735.335938 3935.136719 734.335938 C 3916.519531 733.515625 3897.835938 733.257812 3879.210938 732.796875 C 3867.234375 732.5 3855.316406 732.054688 3843.332031 732.117188 C 3832.117188 732.195312 3820.757812 731.863281 3809.707031 733.484375 C 3792.644531 736.035156 3774.597656 726.574219 3758.292969 737.898438 C 3757.5625 738.390625 3756.242188 738 3755.21875 737.976562 C 3750.921875 737.765625 3746.679688 737.457031 3742.382812 737.300781 C 3740.644531 737.257812 3738.945312 737.523438 3737.207031 737.429688 C 3735.007812 737.375 3732.761719 737.113281 3730.5625 736.90625 C 3730.597656 735.625 3727.988281 733.410156 3727.050781 734.003906 C 3721.125 737.695312 3710.46875 737.894531 3714.429688 749.5625 C 3724.558594 747.816406 3734.585938 746.066406 3745.4375 744.1875 C 3751.90625 745.574219 3759.875 748.433594 3767.957031 748.789062 C 3775.167969 749.070312 3782.5 746.636719 3791.140625 745.164062 C 3792.964844 745.925781 3798.710938 749.546875 3799.710938 748.496094 C 3808.902344 739.097656 3817.601562 743.511719 3826.707031 747.988281 C 3828.277344 748.792969 3830.375 748.742188 3832.269531 748.738281 C 3854.691406 748.988281 3877.15625 749.542969 3899.589844 749.328125 C 3914.136719 749.175781 3928.660156 747.792969 3943.21875 747.128906 C 3945.371094 747.03125 3947.5 747.902344 3949.695312 748.160156 C 3953.78125 748.621094 3957.871094 748.976562 3962.007812 749.386719 L 3961.777344 748.304688 C 3967.164062 749.976562 3972.550781 751.644531 3976.515625 752.867188 C 3978.863281 749.035156 3980.300781 746.714844 3981.742188 744.394531 L 3983.613281 745.3125 C 3983.101562 747.398438 3982.640625 749.4375 3982.527344 749.894531 L 4020.039062 750.820312 C 4019.875 751.125 4019.714844 751.375 4019.503906 751.679688 C 4025.269531 752.539062 4031.035156 753.398438 4037.410156 754.375 L 4037.660156 744.242188 C 4036.035156 745.839844 4034.40625 747.4375 4032.78125 749.039062 C 4037.265625 752.015625 4041.796875 754.996094 4046.28125 758.023438 C 4047.273438 757.230469 4048.214844 756.382812 4049.207031 755.589844 C 4051.351562 753.847656 4053.492188 752.109375 4056.316406 749.824219 C 4056.546875 752.800781 4056.699219 755.054688 4056.886719 757.773438 C 4062.59375 756.839844 4067.835938 755.945312 4074.160156 754.925781 C 4076.625 758.773438 4088.679688 762.042969 4093.609375 757.453125 C 4100 751.519531 4103.300781 752.625 4104.949219 760.5 C 4108.234375 760.273438 4111.011719 759.726562 4113.667969 759.945312 C 4121.945312 760.765625 4130.214844 761.789062 4138.480469 762.96875 C 4146.234375 764.082031 4153.980469 765.550781 4161.734375 766.769531 C 4168.722656 767.863281 4175.65625 769.160156 4182.703125 769.898438 C 4195.0625 771.175781 4207.601562 773.535156 4219.859375 772.660156 C 4230.734375 771.90625 4242.167969 783.65625 4252.558594 771.417969 C 4252.929688 770.96875 4256.230469 771.972656 4256.222656 772.328125 C 4256.40625 781.5 4263.460938 777.78125 4267.898438 778.507812 C 4282.023438 780.851562 4296.375 782.335938 4310.328125 785.445312 C 4325.199219 788.78125 4340.863281 786.917969 4355.195312 793.261719 C 4356.613281 793.859375 4360.332031 792.621094 4360.773438 791.402344 C 4363.414062 783.941406 4366.335938 792.101562 4369.175781 791.199219 C 4370.207031 790.867188 4372.007812 794.597656 4373.792969 794.949219 C 4385.203125 797.28125 4396.726562 799.359375 4408.253906 801.128906 C 4416.671875 802.410156 4425.203125 803.132812 4432.507812 803.980469 C 4434.542969 802.339844 4436.566406 801.316406 4437.730469 799.707031 C 4439.324219 797.441406 4440.3125 794.75 4441.550781 792.222656 C 4439.105469 791.804688 4436.667969 790.976562 4434.257812 791.121094 C 4432.359375 791.226562 4430.484375 792.5625 4427.433594 793.820312 C 4427.910156 791.015625 4428.210938 789.179688 4428.578125 786.882812 Z M 4865.394531 923.851562 C 4865.863281 923.453125 4867.855469 921.660156 4869.847656 919.8125 C 4870.710938 922.140625 4871.625 924.515625 4872.4375 926.839844 C 4873.492188 929.835938 4874.542969 932.832031 4875.785156 936.449219 C 4880.539062 928.527344 4882.40625 925.449219 4883.632812 923.429688 C 4885.988281 925.539062 4887.941406 927.328125 4889.945312 929.066406 C 4890.15625 924.769531 4889.65625 920.046875 4887.28125 918.761719 C 4874.25 911.628906 4861.222656 904.136719 4847.203125 899.589844 C 4843.1875 898.3125 4839.320312 897.347656 4835.535156 895.105469 C 4833.621094 893.929688 4830.3125 895.078125 4825.238281 895.308594 C 4821.839844 894.101562 4815.597656 891.847656 4809.25 889.589844 C 4811.878906 901.433594 4826.457031 912.390625 4839.863281 914.71875 C 4848.125 916.152344 4855.90625 920.339844 4865.394531 923.800781 Z M 3640.582031 743.691406 C 3640.5625 744.613281 3640.265625 748.292969 3639.964844 752.175781 C 3651.601562 751.542969 3661.960938 750.929688 3672.269531 750.363281 C 3672.296875 749.238281 3672.324219 748.113281 3672.351562 747.039062 C 3674.265625 748.316406 3676.179688 749.589844 3678.75 751.292969 C 3679.488281 748.289062 3680.003906 746.050781 3681.429688 740.195312 C 3684.40625 746.109375 3686.214844 749.632812 3688.65625 754.457031 C 3693.175781 744.121094 3691.132812 739.207031 3682.515625 739.710938 C 3681.644531 739.742188 3680.742188 738.949219 3679.824219 738.875 C 3676.09375 738.527344 3672.363281 738.28125 3668.628906 738.140625 C 3664.890625 738.046875 3661.105469 737.953125 3657.363281 738.117188 C 3655.363281 738.167969 3653.308594 738.527344 3651.449219 739.199219 C 3648.554688 740.203125 3645.808594 741.519531 3640.632812 743.746094 Z M 3459.433594 768.144531 C 3468.09375 765.746094 3476.546875 763.5 3484.902344 761.144531 C 3490.675781 759.496094 3491.085938 757.40625 3486.585938 750.945312 C 3474.96875 761.050781 3456.636719 752.867188 3445.574219 765.394531 C 3449.730469 771.234375 3458.554688 753.9375 3459.433594 768.144531 Z M 3017.496094 833.972656 C 3016.125 837.726562 3014.753906 841.328125 3013.054688 845.894531 C 3017.3125 845.644531 3021.824219 845.394531 3028.542969 845 C 3024.519531 841.929688 3022.964844 840.714844 3021.40625 839.546875 C 3030.617188 839.777344 3038.609375 839.5625 3044.226562 829.769531 C 3034.152344 831.363281 3025.621094 832.6875 3017.496094 833.972656 Z M 3519.914062 757.351562 C 3519.316406 756.671875 3518.667969 755.988281 3518.070312 755.359375 C 3512.929688 754.105469 3507.847656 752.496094 3502.59375 751.75 C 3500.144531 751.382812 3495.933594 751.894531 3495.179688 753.359375 C 3493.511719 756.59375 3493.511719 760.742188 3492.804688 764.515625 L 3498.160156 765.414062 C 3499.515625 756.128906 3506.714844 761.121094 3511.402344 759.957031 C 3514.234375 759.257812 3517.023438 758.304688 3519.863281 757.453125 Z M 4654.070312 841.203125 C 4653.132812 841.796875 4652.246094 842.390625 4651.3125 842.929688 C 4653.449219 847.691406 4655.582031 852.507812 4657.71875 857.269531 C 4660.722656 855.757812 4666.238281 854.410156 4666.382812 852.621094 C 4667.273438 843.476562 4656.425781 847.40625 4654.070312 841.203125 Z M 3593.101562 752.65625 C 3602.914062 751.3125 3609.695312 750.355469 3616.480469 749.394531 C 3616.605469 748.375 3616.734375 747.300781 3616.863281 746.28125 C 3611.738281 744.464844 3606.558594 742.59375 3601.230469 740.722656 C 3599.105469 743.84375 3597.140625 746.664062 3593.050781 752.65625 Z M 2871.371094 877.007812 C 2876.53125 879.492188 2880.378906 881.328125 2884.273438 883.214844 C 2885.730469 878.234375 2887.015625 873.808594 2889.148438 866.335938 C 2881.609375 870.859375 2877.089844 873.566406 2871.371094 877.007812 Z M 2640.164062 968.835938 C 2639.527344 967.746094 2638.941406 966.601562 2638.300781 965.511719 C 2631.007812 968.558594 2623.710938 971.601562 2615.796875 974.890625 C 2618.386719 977.820312 2620.21875 980.375 2620.582031 980.230469 C 2627.222656 976.605469 2633.667969 972.71875 2640.164062 968.835938 Z M 2645.21875 965.375 C 2645.21875 965.375 2644.492188 965.820312 2644.484375 966.074219 C 2644.476562 966.332031 2644.882812 966.597656 2645.078125 966.859375 C 2645.339844 966.609375 2645.808594 966.414062 2645.8125 966.160156 C 2645.820312 965.902344 2645.417969 965.636719 2645.21875 965.375 Z M 2645.21875 965.375 " fill-opacity="1" fill-rule="nonzero"/></g></g></g><g fill="#121790" fill-opacity="1"><g transform="translate(1692.625238, 1446.491583)"><g><path d="M 40.203125 -279.421875 L 40.203125 -444.171875 L 394.09375 -444.171875 L 394.09375 -279.421875 Z M 40.203125 -279.421875 "/></g></g></g><g fill="#121790" fill-opacity="1"><g transform="translate(2257.654433, 1680.99461)"><g><path d="M 83.65625 -800.75 C 83.65625 -857.28125 115.148438 -885.546875 178.140625 -885.546875 C 241.117188 -885.546875 272.609375 -857.28125 272.609375 -800.75 C 272.609375 -773.8125 264.734375 -752.847656 248.984375 -737.859375 C 233.242188 -722.878906 209.628906 -715.390625 178.140625 -715.390625 C 115.148438 -715.390625 83.65625 -743.84375 83.65625 -800.75 Z M 264.640625 0 L 91.0625 0 L 91.0625 -636.28125 L 264.640625 -636.28125 Z M 264.640625 0 "/></g></g></g><g fill="#121790" fill-opacity="1"><g transform="translate(146.379251, 752.170062)"><g><path d="M 153.328125 139.78125 L 253.515625 207.78125 L 107.453125 422.984375 L 7.265625 354.984375 Z M 153.328125 139.78125 "/></g></g></g><g fill="#7c9ec3" fill-opacity="1"><g transform="translate(3914.547723, 1784.682856)"><g><path d="M 95.90625 -737.730469 L 216.625 -737.730469 L 223.332031 -615 C 241.664062 -657.027344 269.382812 -689.667969 306.492188 -712.914062 C 343.605469 -736.164062 383.171875 -747.789062 425.199219 -747.789062 C 481.535156 -747.789062 529.042969 -733.484375 567.71875 -704.867188 C 606.390625 -676.253906 633.777344 -638.472656 649.875 -591.527344 C 665.96875 -637.132812 693.019531 -674.578125 731.023438 -703.863281 C 769.027344 -733.148438 813.738281 -747.789062 865.15625 -747.789062 C 948.320312 -747.789062 1014.601562 -718.839844 1064.007812 -660.941406 C 1113.414062 -603.039062 1138.117188 -513.28125 1138.117188 -391.667969 L 1138.117188 0 L 1007.335938 0 L 1007.335938 -391.667969 C 1007.335938 -470.804688 992.136719 -528.484375 961.730469 -564.699219 C 931.328125 -600.914062 892.429688 -619.023438 845.035156 -619.023438 C 798.984375 -619.023438 760.308594 -600.691406 729.011719 -564.027344 C 697.714844 -527.367188 682.066406 -469.910156 682.066406 -391.667969 L 682.066406 0 L 551.285156 0 L 551.285156 -391.667969 C 551.285156 -470.804688 536.195312 -528.484375 506.015625 -564.699219 C 475.835938 -600.914062 436.824219 -619.023438 388.984375 -619.023438 C 358.582031 -619.023438 331.195312 -610.191406 306.828125 -592.53125 C 282.460938 -574.871094 263.011719 -547.710938 248.480469 -511.046875 C 233.949219 -474.382812 226.683594 -429 226.683594 -374.902344 L 226.683594 0 L 95.90625 0 Z M 95.90625 -737.730469 "/></g></g></g><g fill="#121790" fill-opacity="1"><g transform="translate(202.511377, 669.537641)"><g><path d="M 153.328125 139.78125 L 253.515625 207.78125 L 107.453125 422.984375 L 7.265625 354.984375 Z M 153.328125 139.78125 "/></g></g></g></svg>